<?xml version="1.0" encoding="utf-8"?>
<!-- Generator: Adobe Illustrator 15.0.0, SVG Export Plug-In . SVG Version: 6.00 Build 0)  -->
<!DOCTYPE svg PUBLIC "-//W3C//DTD SVG 1.1//EN" "http://www.w3.org/Graphics/SVG/1.1/DTD/svg11.dtd">
<svg version="1.1" id="Layer_1" xmlns="http://www.w3.org/2000/svg" xmlns:xlink="http://www.w3.org/1999/xlink" x="0px" y="0px"
	 width="97.44px" height="97.44px" viewBox="0 0 97.44 97.44" style="enable-background:new 0 0 97.44 97.44;" xml:space="preserve"
	>
<g id="XMLID_2158_">
</g>
<g id="XMLID_2156_">
</g>
<g id="XMLID_2135_">
	<path id="XMLID_2152_" style="fill:#F37F5E;" d="M-12.678,112.857c1.396,1.125,1.43,1.928,0.127,3.233
		c-1.602,1.604-3.188,3.226-4.823,4.795c-0.502,0.481-0.671,0.975-0.67,1.653c0.017,12.375,0.006,24.75,0.028,37.125
		c0.001,0.754-0.224,1.284-0.747,1.82c-14.84,15.216-29.67,30.443-44.485,45.684c-1.1,1.131-2.312,2.014-3.844,2.427
		c-0.629,0-1.259,0-1.889,0c-1.789-0.441-3.06-1.627-4.317-2.888c-10.45-10.479-20.923-20.935-31.385-31.4
		c-2.224-2.226-2.658-4.937-1.162-7.361c0.327-0.529,0.753-1.01,1.193-1.454c15.404-15.543,30.817-31.077,46.214-46.628
		c0.448-0.453,0.9-0.578,1.498-0.577c11.902,0.012,23.804,0.004,35.706,0.022c0.649,0.001,1.112-0.17,1.565-0.639
		c1.532-1.584,3.113-3.121,4.663-4.688c0.423-0.428,0.871-0.814,1.385-1.125C-13.308,112.857-12.993,112.857-12.678,112.857z
		 M-23.592,122.516c-0.555,0-0.865,0-1.175,0c-10.265,0-20.53,0.008-30.795-0.017c-0.697-0.002-1.161,0.224-1.637,0.704
		c-15.046,15.189-30.105,30.366-45.16,45.546c-1.489,1.501-1.494,2.835-0.017,4.312c10.731,10.732,21.463,21.463,32.197,32.192
		c1.487,1.486,2.835,1.48,4.303-0.026c14.675-15.068,29.345-30.142,44.028-45.201c0.433-0.444,0.595-0.892,0.595-1.502
		c-0.015-10.863-0.01-21.727-0.018-32.589c0-0.289,0.132-0.622-0.203-0.92c-2.297,2.297-4.568,4.606-6.891,6.862
		c-0.55,0.534-0.583,0.889-0.244,1.588c1.413,2.909,1.184,5.771-0.747,8.363c-2.009,2.697-4.816,3.72-8.082,3.075
		c-4.419-0.871-7.269-5.473-6.172-9.723c1.16-4.5,5.627-7.104,10.071-5.872c2.004,1.56,3.161,0.193,4.425-1.188
		c1.509-1.646,3.146-3.176,4.725-4.759C-24.171,123.146-23.967,122.916-23.592,122.516z M-33.768,132.791
		c-2.055-1.107-4.59-0.439-5.948,1.468c-1.4,1.966-1.095,4.75,0.695,6.349c1.835,1.638,4.527,1.673,6.38,0.082
		c1.689-1.45,2.197-3.953,1.021-5.711c-0.325,0.389-0.605,0.771-0.933,1.105c-0.703,0.721-1.42,1.429-2.151,2.121
		c-0.481,0.456-1.081,0.523-1.674,0.299c-0.569-0.215-0.902-0.682-0.982-1.286c-0.087-0.656,0.263-1.142,0.701-1.574
		C-35.706,134.7-34.75,133.76-33.768,132.791z"/>
	<path id="XMLID_2149_" style="fill:#F37F5E;" d="M-92.496,172.389c-0.622,0.008-1.091-0.267-1.404-0.794
		c-0.316-0.533-0.321-1.089,0.024-1.603c0.208-0.311,0.476-0.585,0.741-0.851c5.337-5.344,10.678-10.684,16.019-16.023
		c1.116-1.116,2.087-1.286,2.833-0.502c0.72,0.756,0.539,1.689-0.542,2.771c-5.362,5.363-10.725,10.726-16.088,16.088
		C-91.358,171.921-91.792,172.389-92.496,172.389z"/>
	<path id="XMLID_2147_" style="fill:#F37F5E;" d="M-78.826,174.661c-1.213,0.02-1.993-1.249-1.401-2.322
		c0.178-0.323,0.455-0.6,0.72-0.865c5.381-5.388,10.765-10.772,16.154-16.153c0.265-0.264,0.546-0.532,0.868-0.714
		c0.646-0.365,1.29-0.269,1.821,0.241c0.528,0.505,0.683,1.144,0.338,1.805c-0.184,0.354-0.478,0.661-0.764,0.947
		c-5.379,5.39-10.765,10.772-16.15,16.157C-77.687,174.203-78.117,174.677-78.826,174.661z"/>
	<path id="XMLID_2146_" style="fill:#F37F5E;" d="M-68.499,196.351c-1.282,0.006-2.053-1.306-1.465-2.366
		c0.135-0.242,0.328-0.462,0.526-0.66c5.494-5.498,10.991-10.994,16.492-16.485c0.221-0.221,0.459-0.449,0.734-0.582
		c0.693-0.337,1.362-0.241,1.889,0.334c0.496,0.541,0.579,1.178,0.211,1.831c-0.122,0.216-0.288,0.414-0.464,0.59
		c-5.539,5.543-11.082,11.082-16.622,16.623C-67.587,196.024-68.018,196.317-68.499,196.351z"/>
	<path id="XMLID_2145_" style="fill:#F37F5E;" d="M-65.095,176.946c-1.328-0.028-2.059-1.335-1.419-2.38
		c0.194-0.316,0.469-0.59,0.734-0.855c3.447-3.455,6.899-6.904,10.35-10.354c0.089-0.09,0.176-0.181,0.268-0.267
		c0.907-0.859,1.78-0.948,2.499-0.256c0.732,0.704,0.654,1.644-0.251,2.564c-1.28,1.302-2.579,2.585-3.871,3.877
		c-2.293,2.293-4.586,4.586-6.879,6.878C-64.094,176.581-64.533,176.989-65.095,176.946z"/>
	<path id="XMLID_2144_" style="fill:#F37F5E;" d="M-76.51,188.381c-0.632-0.064-1.136-0.279-1.432-0.833
		c-0.309-0.576-0.319-1.172,0.094-1.681c0.794-0.977,1.675-1.883,2.662-2.662c0.606-0.479,1.311-0.415,1.912,0.08
		c0.613,0.505,0.802,1.255,0.396,1.866c-0.8,1.204-1.86,2.204-3.037,3.058C-76.081,188.329-76.332,188.332-76.51,188.381z"/>
	<path id="XMLID_2143_" style="fill:#F37F5E;" d="M-44.213,171.966c-0.011,0.913-0.723,1.591-1.638,1.56
		c-0.851-0.03-1.548-0.75-1.54-1.591c0.009-0.872,0.781-1.598,1.664-1.562C-44.854,170.408-44.203,171.093-44.213,171.966z"/>
	<path id="XMLID_2142_" style="fill:#F37F5E;" d="M-81.825,177.636c0.01,0.888-0.718,1.611-1.609,1.599
		c-0.833-0.012-1.559-0.728-1.575-1.554c-0.018-0.888,0.705-1.592,1.62-1.579C-82.509,176.113-81.835,176.774-81.825,177.636z"/>
	<path id="XMLID_2141_" style="fill:#F37F5E;" d="M-71.309,147.925c0.044-0.9,0.776-1.529,1.708-1.467
		c0.876,0.059,1.48,0.749,1.434,1.638c-0.046,0.868-0.736,1.506-1.607,1.485C-70.681,149.56-71.354,148.834-71.309,147.925z"/>
	<path id="XMLID_2136_" style="fill:#F37F5E;" d="M-69.698,178.377c0.889,0.017,1.531,0.664,1.535,1.548
		c0.003,0.911-0.698,1.6-1.61,1.579c-0.873-0.02-1.53-0.687-1.536-1.561C-71.317,179.024-70.632,178.359-69.698,178.377z"/>
</g>
<g id="XMLID_2108_">
	<g id="XMLID_28_">
		<path id="XMLID_29_" style="fill:#F37F5E;" d="M-220.932,33.498c0.686-13.16,7.306-24.401,20.728-31.116
			c13.533-6.771,29.469-4.289,40.638,5.981c6.43,5.912,10.278,13.238,11.437,21.894c1.348,10.073-1.154,19.173-7.325,27.239
			c-0.638,0.835-0.685,1.266,0.106,2.051c9.043,8.979,18.038,18.006,27.055,27.011c0.995,0.994,1.661,2.068,1.299,3.543
			c-0.593,2.422-3.39,3.372-5.321,1.798c-0.342-0.279-0.65-0.601-0.964-0.913c-8.965-8.961-17.936-17.915-26.877-26.899
			c-0.644-0.646-1.02-0.662-1.728-0.097c-6.517,5.201-14.01,7.865-22.305,7.801c-11.921-0.092-21.702-4.886-29.088-14.291
			C-218.394,50.983-220.833,43.491-220.932,33.498z M-184.302,5.277c-16.342-0.077-29.873,13.287-29.949,29.88
			c-0.077,16.636,13.386,29.957,29.896,29.988c16.494,0.032,29.839-13.264,29.938-29.834
			C-154.32,18.867-167.764,5.355-184.302,5.277z"/>
	</g>
</g>
<g id="XMLID_2037_">
	<path id="XMLID_2086_" style="fill:#F37F5E;" d="M-141.325,317.916c-0.981-0.449-2.059-0.619-3.025-1.146
		c-5.949-3.249-6.547-11.579-1.068-15.54c0.585-0.424,0.696-0.793,0.523-1.446c-0.643-2.436-1.253-4.88-1.839-7.33
		c-0.138-0.578-0.369-0.798-0.995-0.797c-12.936,0.019-25.872,0.021-38.807-0.004c-0.7-0.001-0.876,0.298-1.031,0.876
		c-2.083,7.781-4.204,15.554-6.263,23.342c-0.213,0.808-0.504,0.86-1.2,0.658c-2.003-0.583-2.013-0.559-1.487-2.518
		c3.342-12.436,6.681-24.872,10.041-37.304c0.167-0.617,0.127-0.993-0.431-1.417c-3.801-2.885-6.836-6.442-9.104-10.641
		c-0.321-0.594-0.669-0.836-1.364-0.828c-3.334,0.04-6.67,0.028-10.005,0.008c-0.546-0.003-0.871,0.102-1.158,0.649
		c-1.003,1.912-3.085,2.808-5.137,2.31c-1.995-0.485-3.477-2.353-3.518-4.434c-0.041-2.044,1.387-3.912,3.429-4.487
		c2.024-0.57,4.134,0.276,5.176,2.174c0.304,0.554,0.622,0.727,1.224,0.72c2.868-0.029,5.735-0.026,8.603-0.003
		c0.668,0.005,0.89-0.111,0.623-0.835c-1.083-2.936-1.764-5.967-1.916-9.1c-0.033-0.681-0.291-0.882-0.97-0.878
		c-2.227,0.014-2.194-0.015-2.221-2.231c-0.009-0.72,0.214-0.868,0.895-0.867c24.095,0.017,48.189,0.017,72.284,0
		c0.706,0,0.972,0.146,0.964,0.913c-0.025,2.189,0.01,2.215-2.198,2.188c-0.713-0.009-1.021,0.124-1.083,0.94
		c-0.677,8.871-4.332,16.328-10.787,22.428c-1.157,1.093-2.391,2.097-3.716,2.979c-0.438,0.29-0.616,0.551-0.469,1.128
		c1.814,7.146,3.601,14.298,5.372,21.454c0.134,0.539,0.316,0.65,0.879,0.595c6.288-0.626,11.277,4.646,10.244,10.787
		c-0.614,3.651-3.423,6.543-7.241,7.45c-0.209,0.05-0.439,0.032-0.604,0.208C-139.579,317.916-140.452,317.916-141.325,317.916z
		 M-166.246,249.962c-9.818,0-19.635,0-29.453,0c-0.218,0-0.438,0.016-0.654-0.003c-0.513-0.043-0.734,0.111-0.645,0.687
		c0.142,0.921,0.229,1.853,0.297,2.783c0.062,0.836,0.345,1.17,1.306,1.168c15.802-0.04,31.604-0.028,47.406-0.028
		c1.912,0,1.916,0,1.909,1.919c-0.005,1.393,0.069,1.173-1.224,1.173c-15.739,0.005-31.479,0.003-47.218,0.003
		c-1.179,0-1.177,0.001-0.768,1.141c2.068,5.756,5.546,10.496,10.406,14.186c6.352,4.822,13.567,6.854,21.483,6.172
		c6.512-0.562,12.287-3.044,17.256-7.31c4.276-3.671,7.337-8.181,9.171-13.521c0.201-0.584,0.053-0.689-0.497-0.676
		c-1.09,0.027-2.182,0.008-3.272,0.008c-2.286,0-2.258,0-2.264-2.284c-0.001-0.674,0.216-0.839,0.853-0.824
		c1.713,0.039,3.432-0.054,5.141,0.04c0.91,0.051,1.206-0.286,1.26-1.104c0.052-0.775,0.195-1.545,0.248-2.32
		c0.082-1.207,0.064-1.209-1.194-1.209C-146.548,249.962-156.397,249.962-166.246,249.962z M-167.123,288.572
		c6.167,0,12.334-0.014,18.5,0.016c0.751,0.004,0.886-0.179,0.7-0.886c-0.726-2.766-1.439-5.535-2.075-8.322
		c-0.196-0.858-0.426-0.949-1.192-0.557c-4.156,2.127-8.594,3.276-13.247,3.504c-6.525,0.319-12.671-1.094-18.369-4.32
		c-0.62-0.351-0.807-0.243-0.973,0.396c-0.808,3.098-1.612,6.196-2.491,9.274c-0.238,0.832,0.023,0.908,0.739,0.906
		C-179.394,288.563-173.258,288.572-167.123,288.572z M-139.979,314.799c3.433,0.012,6.179-2.726,6.176-6.156
		c-0.002-3.416-2.785-6.187-6.187-6.16c-3.37,0.026-6.106,2.746-6.159,6.124C-146.201,311.97-143.393,314.789-139.979,314.799z
		 M-212.567,263.849c0.845,0.002,1.527-0.698,1.519-1.56c-0.007-0.826-0.642-1.473-1.465-1.496
		c-0.857-0.023-1.571,0.646-1.587,1.489C-214.117,263.095-213.379,263.848-212.567,263.849z"/>
	<path id="XMLID_2048_" style="fill:#F37F5E;" d="M-177.801,222.143c2.604,0.767,3.743,2.824,4.496,5.182
		c0.246,0.77,0.574,1.017,1.434,0.98c1.989-0.086,3.99-0.046,5.979,0.06c1.651,0.088,2.979,0.879,3.8,2.349
		c0.252,0.451,0.528,0.586,1.016,0.609c2.646,0.126,5.287,0.113,7.935,0.014c2.051-0.077,4.11,0.027,6.164,0.1
		c0.691,0.023,0.91-0.181,0.908-0.889c-0.006-2.265,0.024-2.281,2.328-2.275c3.802,0.009,7.604,0.028,11.406,0.067
		c2.645,0.026,4.575,1.838,4.766,4.422c0.173,2.349-1.645,4.425-4.193,4.767c-1.303,0.175-2.617,0.096-3.922,0.066
		c-3.177-0.072-6.351,0.181-9.529,0.033c-0.717-0.034-0.884-0.264-0.886-0.931c-0.007-2.218-0.03-2.225-2.232-2.216
		c-4.174,0.017-8.347,0.052-12.521,0.055c-0.58,0.001-0.941,0.116-1.258,0.685c-0.898,1.609-2.399,2.351-4.184,2.36
		c-2.023,0.011-4.047,0.248-6.069,0.046c-0.503-0.05-0.654,0.199-0.78,0.587c-0.377,1.158-0.854,2.272-1.527,3.294
		c-1.339,2.034-3.746,2.796-5.875,1.859c-2.212-0.972-3.425-4.021-2.159-6.072c1.253-2.031,1.125-4.14,1.006-6.315
		c-0.036-0.656-0.417-1.165-0.711-1.707c-1.58-2.917-0.574-5.746,2.496-6.997c0.085-0.034,0.163-0.087,0.244-0.132
		C-179.048,222.143-178.424,222.143-177.801,222.143z M-175.454,234.258c0.105-3.296-0.291-5.781-1.717-8.024
		c-0.312-0.49-0.654-0.924-1.298-0.932c-1.3-0.017-1.978,1.209-1.226,2.359c0.875,1.338,1.224,2.769,1.148,4.341
		c-0.031,0.652-0.031,1.31,0,1.962c0.071,1.54-0.258,2.951-1.129,4.252c-0.58,0.865-0.412,1.711,0.301,2.113
		c0.854,0.482,1.65,0.239,2.206-0.654C-176.005,237.803-175.461,235.756-175.454,234.258z M-137.292,234.441
		c0,0.022,0,0.045,0,0.066c1.648,0,3.298,0.024,4.946-0.008c1.14-0.022,1.901-0.912,1.647-1.873
		c-0.235-0.893-0.88-1.207-1.758-1.204c-2.769,0.01-5.543-0.103-8.305,0.032c-2.704,0.133-2.106-0.462-2.202,2.238
		c-0.02,0.554,0.143,0.771,0.729,0.76C-140.588,234.42-138.94,234.441-137.292,234.441z M-169.104,234.44c0,0.022,0,0.044,0,0.066
		c0.932,0,1.864,0.025,2.794-0.007c1.022-0.035,1.639-0.63,1.65-1.521c0.012-0.935-0.607-1.533-1.702-1.542
		c-1.271-0.01-2.542,0.061-3.813,0.074c-2.243,0.023-2.228,0.017-2.167,2.292c0.013,0.484,0.146,0.662,0.634,0.646
		C-170.842,234.421-169.973,234.44-169.104,234.44z"/>
	<path id="XMLID_2042_" style="fill:#F37F5E;" d="M-138.446,308.639c0.006,0.825-0.736,1.561-1.551,1.536
		c-0.777-0.022-1.48-0.74-1.486-1.517c-0.005-0.808,0.761-1.565,1.559-1.542C-139.145,307.139-138.451,307.853-138.446,308.639z"/>
</g>
<g id="XMLID_2164_">
	<g id="XMLID_2021_">
		<path id="XMLID_2022_" style="fill:#F37F5E;" d="M-57.287,50.582c-13.64,0-24.736-11.097-24.736-24.738
			c0-13.64,11.096-24.736,24.736-24.736c13.639,0,24.736,11.097,24.736,24.736C-32.551,39.485-43.648,50.582-57.287,50.582z
			 M-57.287,5.42c-11.262,0-20.424,9.161-20.424,20.424c0,11.262,9.162,20.426,20.424,20.426s20.423-9.164,20.423-20.426
			C-36.864,14.581-46.025,5.42-57.287,5.42z"/>
	</g>
	<g id="XMLID_2014_">
		<path id="XMLID_2015_" style="fill:#F37F5E;" d="M-20.576,97.048h-73.423c-1.553,0-3.046-0.658-4.096-1.812
			c-1.053-1.156-1.574-2.712-1.432-4.268c2.014-21.948,20.174-38.496,42.24-38.496s40.226,16.548,42.24,38.496
			c0.142,1.562-0.382,3.117-1.438,4.272C-17.532,96.39-19.025,97.048-20.576,97.048z M-57.287,56.784
			c-19.824,0-36.135,14.866-37.944,34.579c-0.045,0.484,0.185,0.813,0.324,0.969c0.137,0.15,0.437,0.403,0.908,0.403h73.423
			c0.469,0,0.769-0.253,0.906-0.403c0.142-0.155,0.371-0.484,0.327-0.971C-21.152,71.65-37.464,56.784-57.287,56.784z"/>
	</g>
</g>
<g id="XMLID_2880_">
	<path id="XMLID_2977_" style="fill:#F37F5E;" d="M-124.533,391.378c0,11.949,0.027,23.898-0.012,35.847
		c-0.021,6.105-3.447,10.616-9.102,12.031c-1.226,0.307-2.54,0.363-3.814,0.364c-23.255,0.021-46.511,0.025-69.767,0.01
		c-8.177-0.005-12.991-4.875-12.994-13.107c-0.008-23.448-0.008-46.896,0-70.345c0.003-8.216,4.831-13.076,13.021-13.081
		c23.191-0.014,46.383-0.013,69.575-0.001c8.3,0.005,13.086,4.847,13.091,13.206C-124.527,367.993-124.533,379.686-124.533,391.378z
		 M-135.786,391.558c0-11.69-0.032-23.382,0.036-35.073c0.01-1.699-0.485-2.174-2.18-2.17c-22.933,0.052-45.865,0.054-68.797-0.003
		c-1.774-0.004-2.286,0.48-2.281,2.267c0.056,23.189,0.056,46.379,0,69.568c-0.004,1.782,0.5,2.274,2.278,2.27
		c22.868-0.057,45.736-0.059,68.604,0.002c1.852,0.005,2.394-0.499,2.381-2.365C-135.826,414.555-135.786,403.057-135.786,391.558z"
		/>
	<path id="XMLID_2976_" style="fill:#F37F5E;" d="M-152.012,387.161c3.088,0,5.939,0,8.901,0c0,11.169,0,22.242,0,33.438
		c-19.485,0-38.911,0-58.492,0c0-11.058,0-22.131,0-33.373c2.823,0,5.725,0,8.856,0c0,2.874-0.038,5.741,0.007,8.607
		c0.146,9.38,6.198,17.444,14.831,19.812c13.026,3.573,25.489-5.836,25.885-19.577
		C-151.939,393.135-152.012,390.196-152.012,387.161z"/>
	<path id="XMLID_2884_" style="fill:#F37F5E;" d="M-172.663,408.831c-7.099-0.214-12.636-6.013-12.433-13.021
		c0.202-6.938,6.119-12.624,12.905-12.401c7.198,0.235,12.783,6.105,12.524,13.163
		C-159.922,403.536-165.757,409.039-172.663,408.831z"/>
	<path id="XMLID_2882_" style="fill:#F37F5E;" d="M-143.141,374.597c-4.252,0-8.387,0-12.627,0c0-3.928,0-7.743,0-11.668
		c4.208,0,8.347,0,12.627,0C-143.141,366.758-143.141,370.57-143.141,374.597z"/>
</g>
<path id="XMLID_2878_" style="fill:#F37F5E;" d="M-183.031,505.381c-4.322,0-8.301,0-12.406,0c0-5.72,0-11.318,0-17.128
	c4.087,0,8.109,0,12.346,0c0-3.736,0.027-7.267-0.008-10.796c-0.037-3.688,0.173-7.311,1.461-10.844
	c2.455-6.732,7.349-10.717,14.228-11.627c5.794-0.767,11.722-0.529,17.723-0.741c0,5.799,0,11.219,0,16.92
	c-3.106,0-6.25-0.067-9.388,0.03c-1.432,0.045-2.883,0.302-4.271,0.67c-1.697,0.449-2.766,1.731-2.812,3.449
	c-0.113,4.227-0.037,8.457-0.037,12.911c5.65,0,11.193,0,16.878,0c-0.881,5.81-1.725,11.375-2.602,17.155c-4.736,0-9.45,0-14.312,0
	c0,15.538,0,30.854,0,46.304c-5.629,0-11.108,0-16.802,0C-183.031,536.356-183.031,520.996-183.031,505.381z"/>
<path id="XMLID_2877_" style="fill:#F37F5E;" d="M-95.968,400.795c2.916-0.171,5.521,0.535,8.029-0.839
	c-10.542-5.065-15.678-12.273-14.759-20.191c2.574,0.666,5.188,1.342,7.802,2.018c0.118-0.187,0.235-0.372,0.352-0.559
	c-4.054-3.433-6.585-7.701-7.722-12.853c-1.16-5.258-0.423-10.177,2.016-15.125c10.846,13.569,24.836,20.767,41.547,22.079
	c0.344-3.784,0.251-7.395,1.061-10.79c2.246-9.427,10.711-15.803,19.927-15.363c4.698,0.224,8.807,2.019,12.123,5.317
	c1.262,1.255,2.469,1.354,3.88,0.83c3.159-1.175,6.283-2.44,9.663-3.764c-1.327,4.235-4.069,7.506-7.142,10.57
	c0.069,0.165,0.139,0.33,0.208,0.495c3.105-0.926,6.211-1.851,9.451-2.815c-2.032,3.642-4.676,6.675-7.828,9.249
	c-1.024,0.836-1.473,1.677-1.439,3.002c0.242,9.603-1.383,18.88-5.388,27.633c-7.746,16.93-20.393,28.302-38.698,32.498
	c-14.528,3.33-28.267,0.562-41.009-7.143c-0.31-0.188-0.594-0.419-1.146-0.813c10.375,0.927,19.287-1.645,27.042-8.911
	C-87,414.016-92.995,409.519-95.968,400.795z"/>
<g id="XMLID_3176_">
	<path id="XMLID_3179_" style="fill:#F37F5E;" d="M-105.724,248.664c0.139-1.099,0.215-2.21,0.431-3.294
		c0.538-2.702,1.75-5.082,3.671-7.064c2.542-2.622,4.974-5.37,7.756-7.734c4.229-3.593,8.724-3.59,12.775,0.163
		c4.312,3.993,8.503,8.134,12.414,12.529c2.905,3.264,2.869,8.051,0.063,11.411c-2.087,2.5-4.462,4.726-6.821,6.961
		c-0.458,0.434-0.532,0.729-0.241,1.319c2.303,4.662,5.559,8.621,9.076,12.385c3.564,3.813,7.501,7.197,11.872,10.064
		c1.193,0.782,2.5,1.355,3.725,2.076c0.518,0.306,0.721-0.055,0.999-0.321c2.322-2.229,4.46-4.649,6.925-6.728
		c3.439-2.899,8.225-2.929,11.529,0.12c4.458,4.114,8.757,8.404,12.834,12.897c3.046,3.356,3.059,8.245,0.135,11.731
		c-2.568,3.062-5.512,5.775-8.337,8.592c-2.158,2.15-4.93,3.255-7.964,3.646c-0.209,0.027-0.41,0.114-0.615,0.174
		c-1.177,0-2.353,0-3.53,0c-0.205-0.056-0.406-0.146-0.614-0.162c-2.041-0.161-4.039-0.561-6.011-1.094
		c-6.96-1.881-13.331-5.092-19.377-8.918c-15.161-9.597-26.83-22.426-34.976-38.419c-2.292-4.499-4.049-9.214-5.09-14.175
		c-0.337-1.605-0.36-3.248-0.63-4.859C-105.724,249.531-105.724,249.098-105.724,248.664z M-37.765,312.189
		c3.467,0.021,6.057-0.967,8.086-3.214c1.87-2.07,3.899-3.979,5.848-5.97c0.367-0.375,0.731-0.76,1.05-1.176
		c1.275-1.663,1.24-3.387-0.093-4.994c-0.315-0.38-0.659-0.738-1.008-1.089c-2.098-2.105-4.2-4.205-6.302-6.306
		c-1.511-1.51-3.001-3.041-4.543-4.519c-1.65-1.583-3.487-1.607-5.227-0.13c-0.33,0.279-0.635,0.59-0.941,0.896
		c-2.126,2.12-4.237,4.256-6.379,6.36c-1.533,1.506-3.237,1.778-5.094,0.839c-1.296-0.656-2.597-1.312-3.843-2.055
		c-5.601-3.34-10.474-7.566-14.874-12.352c-3.888-4.229-7.435-8.701-9.829-13.985c-1.263-2.788-1.019-4.184,1.21-6.282
		c2.276-2.144,4.535-4.308,6.641-6.619c1.557-1.709,1.537-3.397,0.064-5.159c-0.238-0.285-0.493-0.557-0.755-0.818
		c-3.497-3.508-6.993-7.016-10.498-10.516c-2.258-2.255-4.251-2.275-6.508-0.049c-2.159,2.131-4.299,4.281-6.436,6.435
		c-1.032,1.041-1.904,2.198-2.377,3.61c-0.976,2.916-0.75,5.871-0.151,8.802c0.922,4.51,2.634,8.752,4.664,12.864
		c3.586,7.264,8.251,13.795,13.653,19.805c9.55,10.627,20.875,18.709,34.324,23.69C-43.935,311.425-40.663,312.069-37.765,312.189z"
		/>
	<path id="XMLID_3178_" style="fill:#F37F5E;" d="M-52.403,222.468c2.127,0.628,4.319,0.989,6.438,1.66
		c6.877,2.175,13.031,5.627,18.439,10.387c5.747,5.058,10.199,11.079,13.272,18.104c1.604,3.666,2.722,7.48,3.464,11.409
		c0.04,0.21,0.125,0.41,0.188,0.614c0,0.187,0,0.372,0,0.558c-0.023,0.021-0.057,0.038-0.066,0.063
		c-0.576,1.594-1.509,2.372-2.753,2.292c-1.513-0.097-2.403-0.965-2.74-2.774c-1.242-6.666-3.782-12.787-7.749-18.287
		c-5.19-7.197-11.876-12.533-20.099-15.914c-2.897-1.19-5.896-2.026-8.969-2.621c-1.748-0.338-2.614-1.151-2.765-2.434
		c-0.157-1.337,0.447-2.242,2.039-3.057C-53.27,222.468-52.837,222.468-52.403,222.468z"/>
	<path id="XMLID_3177_" style="fill:#F37F5E;" d="M-56.522,242.45c-0.001-1.732,1.485-2.998,3.254-2.668
		c8.354,1.558,15.03,5.798,20.02,12.669c2.713,3.736,4.414,7.916,5.268,12.449c0.306,1.619-0.477,3.009-1.957,3.395
		c-1.44,0.375-2.915-0.496-3.297-2.096c-0.497-2.076-0.965-4.156-1.879-6.098c-3.832-8.14-10.136-13.152-18.965-14.963
		C-55.656,244.814-56.522,243.849-56.522,242.45z"/>
</g>
<g id="XMLID_3169_">
	<path id="XMLID_3173_" style="fill:#F37F5E;" d="M-124.079,173.351c-0.424,1.739-0.899,3.442-2.035,4.903
		c-2.161,2.781-4.977,4.118-8.483,4.094c-3.143-0.022-6.287,0.021-9.429-0.022c-0.787-0.011-0.993,0.221-0.99,1
		c0.029,7.513,0.018,15.024,0.018,22.536c0,0.334,0,0.668,0,1.01c-0.423,0.028-0.581-0.244-0.784-0.411
		c-9.501-7.791-19.002-15.582-28.488-23.393c-0.616-0.508-1.223-0.743-2.033-0.741c-11.284,0.024-22.568,0.024-33.852,0.013
		c-4.844-0.005-8.625-2.694-10.017-7.086c-0.198-0.625-0.335-1.268-0.501-1.902c0-17.985,0-35.971,0-53.957
		c0.058-0.139,0.146-0.273,0.17-0.418c0.423-2.487,1.647-4.487,3.546-6.14c1.447-1.26,3.171-1.836,4.962-2.31
		c26.413,0,52.825,0,79.237,0c0.14,0.059,0.275,0.14,0.421,0.17c3.949,0.829,6.476,3.244,7.791,6.998
		c0.194,0.554,0.312,1.133,0.466,1.699C-124.079,137.38-124.079,155.365-124.079,173.351z M-151.037,194.348
		c0-0.575,0-0.915,0-1.255c0-5.251,0.02-10.501-0.02-15.751c-0.006-0.828,0.202-1.056,1.039-1.049
		c5.156,0.039,10.312,0.031,15.469,0.015c2.747-0.01,4.419-1.671,4.421-4.415c0.01-16.978,0.01-33.956,0-50.934
		c-0.002-2.75-1.682-4.393-4.427-4.394c-25.216-0.003-50.431-0.002-75.646,0.003c-0.437,0-0.887,0.015-1.31,0.112
		c-1.994,0.466-3.117,2.121-3.117,4.565c-0.002,16.727-0.001,33.453-0.001,50.18c0,3.365,1.527,4.887,4.902,4.887
		c11.916,0,23.832,0.002,35.748-0.006c0.58,0,1.074,0.072,1.559,0.475c3.919,3.252,7.861,6.476,11.798,9.705
		C-157.493,189.056-154.36,191.622-151.037,194.348z"/>
	<path id="XMLID_3172_" style="fill:#F37F5E;" d="M-172.328,142.974c10.751,0,21.502,0.01,32.253-0.02
		c0.856-0.003,1.133,0.206,1.086,1.08c-0.076,1.41-0.046,2.829-0.009,4.242c0.016,0.584-0.177,0.813-0.75,0.733
		c-0.123-0.017-0.251-0.002-0.377-0.002c-21.502,0-43.004-0.006-64.506,0.021c-0.909,0.001-1.194-0.213-1.135-1.133
		c0.085-1.315,0.071-2.643,0.003-3.959c-0.041-0.796,0.218-0.984,0.992-0.981c8.424,0.028,16.849,0.018,25.274,0.018
		C-177.106,142.974-174.717,142.974-172.328,142.974z"/>
	<path id="XMLID_3171_" style="fill:#F37F5E;" d="M-172.281,128.178c10.689,0,21.378-0.001,32.068,0
		c1.203,0,1.203,0.002,1.204,1.231c0,1.384-0.017,2.768,0.008,4.15c0.009,0.489-0.161,0.697-0.649,0.657
		c-0.218-0.018-0.439-0.001-0.66-0.001c-21.378,0-42.757,0.001-64.136-0.002c-1.529,0-1.283,0.103-1.295-1.316
		c-0.012-1.353,0.013-2.704-0.01-4.056c-0.008-0.483,0.156-0.702,0.647-0.666c0.25,0.019,0.503,0.002,0.754,0.002
		C-193.659,128.178-182.97,128.178-172.281,128.178z"/>
	<path id="XMLID_3170_" style="fill:#F37F5E;" d="M-172.28,157.748c10.721,0,21.442,0.013,32.163-0.021
		c0.928-0.003,1.177,0.258,1.128,1.156c-0.077,1.411-0.037,2.829-0.013,4.243c0.008,0.488-0.158,0.699-0.648,0.655
		c-0.218-0.02-0.44-0.002-0.66-0.002c-21.379,0-42.758,0.001-64.137-0.003c-1.499,0-1.282,0.144-1.294-1.314
		c-0.01-1.353,0.013-2.704-0.01-4.056c-0.008-0.484,0.154-0.702,0.648-0.66c0.25,0.021,0.502,0.002,0.754,0.002
		C-193.659,157.748-182.969,157.748-172.28,157.748z"/>
</g>
<g id="XMLID_495_">
	<path id="XMLID_505_" style="fill:#B9B7B9;" d="M-294.664,112.857c1.396,1.125,1.43,1.928,0.127,3.233
		c-1.602,1.604-3.188,3.226-4.823,4.795c-0.503,0.481-0.672,0.975-0.671,1.653c0.018,12.375,0.007,24.75,0.028,37.125
		c0.001,0.754-0.224,1.284-0.747,1.82c-14.84,15.216-29.67,30.443-44.485,45.684c-1.1,1.131-2.312,2.014-3.844,2.427
		c-0.63,0-1.259,0-1.889,0c-1.789-0.441-3.06-1.627-4.317-2.888c-10.45-10.479-20.923-20.935-31.385-31.4
		c-2.224-2.226-2.658-4.937-1.162-7.361c0.327-0.529,0.753-1.01,1.193-1.454c15.404-15.543,30.817-31.077,46.214-46.628
		c0.448-0.453,0.9-0.578,1.498-0.577c11.902,0.012,23.804,0.004,35.706,0.022c0.649,0.001,1.112-0.17,1.566-0.639
		c1.532-1.584,3.113-3.121,4.663-4.688c0.423-0.428,0.871-0.814,1.385-1.125C-295.293,112.857-294.979,112.857-294.664,112.857z
		 M-305.578,122.516c-0.555,0-0.865,0-1.175,0c-10.265,0-20.53,0.008-30.795-0.017c-0.697-0.002-1.161,0.224-1.637,0.704
		c-15.046,15.189-30.105,30.366-45.16,45.546c-1.489,1.501-1.494,2.835-0.017,4.312c10.731,10.732,21.463,21.463,32.197,32.192
		c1.487,1.486,2.835,1.48,4.303-0.026c14.675-15.068,29.345-30.142,44.028-45.201c0.433-0.444,0.595-0.892,0.595-1.502
		c-0.015-10.863-0.01-21.727-0.018-32.589c0-0.289,0.132-0.622-0.203-0.92c-2.297,2.297-4.568,4.606-6.891,6.862
		c-0.55,0.534-0.583,0.889-0.244,1.588c1.413,2.909,1.184,5.771-0.747,8.363c-2.009,2.697-4.816,3.72-8.082,3.075
		c-4.419-0.871-7.269-5.473-6.173-9.723c1.161-4.5,5.628-7.104,10.071-5.872c2.004,1.56,3.161,0.193,4.425-1.188
		c1.508-1.646,3.146-3.176,4.725-4.759C-306.157,123.146-305.953,122.916-305.578,122.516z M-315.753,132.791
		c-2.055-1.107-4.59-0.439-5.948,1.468c-1.4,1.966-1.095,4.75,0.695,6.349c1.835,1.638,4.527,1.673,6.38,0.082
		c1.689-1.45,2.196-3.953,1.021-5.711c-0.325,0.389-0.605,0.771-0.933,1.105c-0.703,0.721-1.42,1.429-2.151,2.121
		c-0.481,0.456-1.081,0.523-1.674,0.299c-0.569-0.215-0.902-0.682-0.982-1.286c-0.087-0.656,0.263-1.142,0.7-1.574
		C-317.691,134.7-316.735,133.76-315.753,132.791z"/>
	<path id="XMLID_504_" style="fill:#B9B7B9;" d="M-374.482,172.389c-0.622,0.008-1.091-0.267-1.404-0.794
		c-0.316-0.533-0.32-1.089,0.025-1.603c0.208-0.311,0.476-0.585,0.741-0.851c5.338-5.344,10.678-10.684,16.02-16.023
		c1.116-1.116,2.087-1.286,2.833-0.502c0.72,0.756,0.539,1.689-0.542,2.771c-5.362,5.363-10.725,10.726-16.088,16.088
		C-373.344,171.921-373.778,172.389-374.482,172.389z"/>
	<path id="XMLID_503_" style="fill:#B9B7B9;" d="M-360.812,174.661c-1.212,0.02-1.992-1.249-1.401-2.322
		c0.178-0.323,0.455-0.6,0.72-0.865c5.381-5.388,10.765-10.772,16.153-16.153c0.265-0.264,0.547-0.532,0.869-0.714
		c0.646-0.365,1.29-0.269,1.821,0.241c0.527,0.505,0.683,1.144,0.338,1.805c-0.184,0.354-0.478,0.661-0.764,0.947
		c-5.379,5.39-10.765,10.772-16.15,16.157C-359.672,174.203-360.103,174.677-360.812,174.661z"/>
	<path id="XMLID_502_" style="fill:#B9B7B9;" d="M-350.484,196.351c-1.282,0.006-2.053-1.306-1.465-2.366
		c0.135-0.242,0.328-0.462,0.526-0.66c5.494-5.498,10.991-10.994,16.492-16.485c0.221-0.221,0.459-0.449,0.734-0.582
		c0.693-0.337,1.362-0.241,1.889,0.334c0.496,0.541,0.579,1.178,0.211,1.831c-0.122,0.216-0.288,0.414-0.464,0.59
		c-5.539,5.543-11.082,11.082-16.622,16.623C-349.573,196.024-350.003,196.317-350.484,196.351z"/>
	<path id="XMLID_501_" style="fill:#B9B7B9;" d="M-347.081,176.946c-1.328-0.028-2.059-1.335-1.419-2.38
		c0.194-0.316,0.469-0.59,0.734-0.855c3.447-3.455,6.899-6.904,10.35-10.354c0.089-0.09,0.176-0.181,0.268-0.267
		c0.907-0.859,1.78-0.948,2.499-0.256c0.731,0.704,0.654,1.644-0.251,2.564c-1.28,1.302-2.58,2.585-3.871,3.877
		c-2.293,2.293-4.586,4.586-6.879,6.878C-346.08,176.581-346.519,176.989-347.081,176.946z"/>
	<path id="XMLID_500_" style="fill:#B9B7B9;" d="M-358.496,188.381c-0.632-0.064-1.136-0.279-1.433-0.833
		c-0.308-0.576-0.319-1.172,0.095-1.681c0.794-0.977,1.675-1.883,2.662-2.662c0.606-0.479,1.311-0.415,1.912,0.08
		c0.613,0.505,0.802,1.255,0.396,1.866c-0.8,1.204-1.86,2.204-3.037,3.058C-358.067,188.329-358.318,188.332-358.496,188.381z"/>
	<path id="XMLID_499_" style="fill:#B9B7B9;" d="M-326.199,171.966c-0.011,0.913-0.723,1.591-1.638,1.56
		c-0.851-0.03-1.548-0.75-1.54-1.591c0.009-0.872,0.781-1.598,1.664-1.562C-326.839,170.408-326.188,171.093-326.199,171.966z"/>
	<path id="XMLID_498_" style="fill:#B9B7B9;" d="M-363.811,177.636c0.01,0.888-0.718,1.611-1.609,1.599
		c-0.833-0.012-1.559-0.728-1.575-1.554c-0.018-0.888,0.705-1.592,1.62-1.579C-364.495,176.113-363.821,176.774-363.811,177.636z"/>
	<path id="XMLID_497_" style="fill:#B9B7B9;" d="M-353.295,147.925c0.044-0.9,0.776-1.529,1.708-1.467
		c0.875,0.059,1.48,0.749,1.433,1.638c-0.045,0.868-0.735,1.506-1.607,1.485C-352.667,149.56-353.339,148.834-353.295,147.925z"/>
	<path id="XMLID_496_" style="fill:#B9B7B9;" d="M-351.684,178.377c0.889,0.017,1.531,0.664,1.534,1.548
		c0.003,0.911-0.698,1.6-1.61,1.579c-0.873-0.02-1.53-0.687-1.536-1.561C-353.303,179.024-352.619,178.359-351.684,178.377z"/>
</g>
<g id="XMLID_486_">
	<path id="XMLID_492_" style="fill:#B9B7B9;" d="M-502.918,33.498c0.686-13.16,7.306-24.401,20.728-31.116
		c13.533-6.771,29.469-4.289,40.638,5.981c6.43,5.912,10.277,13.238,11.437,21.894c1.348,10.073-1.154,19.173-7.325,27.239
		c-0.638,0.835-0.685,1.266,0.106,2.051c9.044,8.979,18.039,18.006,27.056,27.011c0.995,0.994,1.66,2.068,1.299,3.543
		c-0.593,2.422-3.39,3.372-5.321,1.798c-0.342-0.279-0.651-0.601-0.964-0.913c-8.965-8.961-17.936-17.915-26.877-26.899
		c-0.644-0.646-1.02-0.662-1.728-0.097c-6.518,5.201-14.01,7.865-22.305,7.801c-11.921-0.092-21.702-4.886-29.088-14.291
		C-500.379,50.983-502.819,43.491-502.918,33.498z M-466.288,5.277c-16.342-0.077-29.873,13.287-29.949,29.88
		c-0.077,16.636,13.386,29.957,29.895,29.988c16.494,0.032,29.84-13.264,29.938-29.834C-436.306,18.867-449.75,5.355-466.288,5.277z
		"/>
</g>
<g id="XMLID_473_">
	<path id="XMLID_480_" style="fill:#B9B7B9;" d="M-423.311,317.916c-0.981-0.449-2.059-0.619-3.025-1.146
		c-5.949-3.249-6.548-11.579-1.068-15.54c0.585-0.424,0.696-0.793,0.523-1.446c-0.643-2.436-1.253-4.88-1.839-7.33
		c-0.138-0.578-0.369-0.798-0.995-0.797c-12.936,0.019-25.872,0.021-38.807-0.004c-0.7-0.001-0.876,0.298-1.031,0.876
		c-2.083,7.781-4.204,15.554-6.263,23.342c-0.213,0.808-0.504,0.86-1.2,0.658c-2.003-0.583-2.014-0.559-1.487-2.518
		c3.342-12.436,6.681-24.872,10.041-37.304c0.167-0.617,0.127-0.993-0.431-1.417c-3.801-2.885-6.836-6.442-9.104-10.641
		c-0.321-0.594-0.669-0.836-1.364-0.828c-3.334,0.04-6.67,0.028-10.005,0.008c-0.546-0.003-0.871,0.102-1.158,0.649
		c-1.003,1.912-3.085,2.808-5.137,2.31c-1.995-0.485-3.477-2.353-3.518-4.434c-0.041-2.044,1.387-3.912,3.429-4.487
		c2.024-0.57,4.134,0.276,5.176,2.174c0.304,0.554,0.622,0.727,1.224,0.72c2.868-0.029,5.735-0.026,8.603-0.003
		c0.668,0.005,0.89-0.111,0.623-0.835c-1.084-2.936-1.765-5.967-1.916-9.1c-0.033-0.681-0.291-0.882-0.971-0.878
		c-2.227,0.014-2.193-0.015-2.22-2.231c-0.009-0.72,0.214-0.868,0.895-0.867c24.095,0.017,48.189,0.017,72.284,0
		c0.706,0,0.972,0.146,0.963,0.913c-0.024,2.189,0.011,2.215-2.198,2.188c-0.713-0.009-1.021,0.124-1.083,0.94
		c-0.677,8.871-4.332,16.328-10.787,22.428c-1.157,1.093-2.391,2.097-3.716,2.979c-0.438,0.29-0.616,0.551-0.469,1.128
		c1.814,7.146,3.601,14.298,5.372,21.454c0.134,0.539,0.316,0.65,0.879,0.595c6.288-0.626,11.277,4.646,10.244,10.787
		c-0.614,3.651-3.423,6.543-7.241,7.45c-0.209,0.05-0.439,0.032-0.604,0.208C-421.564,317.916-422.438,317.916-423.311,317.916z
		 M-448.232,249.962c-9.818,0-19.636,0-29.453,0c-0.218,0-0.438,0.016-0.654-0.003c-0.513-0.043-0.734,0.111-0.646,0.687
		c0.142,0.921,0.229,1.853,0.298,2.783c0.062,0.836,0.345,1.17,1.306,1.168c15.802-0.04,31.604-0.028,47.406-0.028
		c1.912,0,1.916,0,1.909,1.919c-0.005,1.393,0.069,1.173-1.224,1.173c-15.739,0.005-31.479,0.003-47.219,0.003
		c-1.178,0-1.177,0.001-0.767,1.141c2.068,5.756,5.545,10.496,10.406,14.186c6.352,4.822,13.567,6.854,21.483,6.172
		c6.512-0.562,12.287-3.044,17.256-7.31c4.276-3.671,7.336-8.181,9.171-13.521c0.201-0.584,0.053-0.689-0.497-0.676
		c-1.09,0.027-2.182,0.008-3.272,0.008c-2.286,0-2.258,0-2.264-2.284c-0.001-0.674,0.216-0.839,0.853-0.824
		c1.713,0.039,3.432-0.054,5.141,0.04c0.91,0.051,1.206-0.286,1.26-1.104c0.052-0.775,0.195-1.545,0.248-2.32
		c0.082-1.207,0.064-1.209-1.194-1.209C-428.534,249.962-438.383,249.962-448.232,249.962z M-449.108,288.572
		c6.167,0,12.334-0.014,18.5,0.016c0.751,0.004,0.886-0.179,0.7-0.886c-0.726-2.766-1.439-5.535-2.075-8.322
		c-0.196-0.858-0.425-0.949-1.192-0.557c-4.156,2.127-8.594,3.276-13.247,3.504c-6.525,0.319-12.671-1.094-18.369-4.32
		c-0.62-0.351-0.807-0.243-0.973,0.396c-0.808,3.098-1.612,6.196-2.491,9.274c-0.238,0.832,0.023,0.908,0.739,0.906
		C-461.38,288.563-455.244,288.572-449.108,288.572z M-421.964,314.799c3.433,0.012,6.179-2.726,6.176-6.156
		c-0.002-3.416-2.785-6.187-6.187-6.16c-3.371,0.026-6.106,2.746-6.159,6.124C-428.187,311.97-425.378,314.789-421.964,314.799z
		 M-494.553,263.849c0.846,0.002,1.527-0.698,1.519-1.56c-0.007-0.826-0.642-1.473-1.465-1.496
		c-0.857-0.023-1.571,0.646-1.587,1.489C-496.103,263.095-495.365,263.848-494.553,263.849z"/>
	<path id="XMLID_475_" style="fill:#B9B7B9;" d="M-459.787,222.143c2.604,0.767,3.743,2.824,4.495,5.182
		c0.246,0.77,0.575,1.017,1.434,0.98c1.989-0.086,3.99-0.046,5.979,0.06c1.651,0.088,2.979,0.879,3.8,2.349
		c0.252,0.451,0.528,0.586,1.016,0.609c2.646,0.126,5.287,0.113,7.935,0.014c2.051-0.077,4.11,0.027,6.164,0.1
		c0.691,0.023,0.909-0.181,0.908-0.889c-0.006-2.265,0.024-2.281,2.328-2.275c3.802,0.009,7.604,0.028,11.406,0.067
		c2.645,0.026,4.575,1.838,4.766,4.422c0.173,2.349-1.645,4.425-4.192,4.767c-1.303,0.175-2.617,0.096-3.922,0.066
		c-3.177-0.072-6.351,0.181-9.529,0.033c-0.717-0.034-0.884-0.264-0.886-0.931c-0.007-2.218-0.03-2.225-2.232-2.216
		c-4.174,0.017-8.347,0.052-12.521,0.055c-0.58,0.001-0.942,0.116-1.258,0.685c-0.898,1.609-2.399,2.351-4.184,2.36
		c-2.023,0.011-4.047,0.248-6.069,0.046c-0.504-0.05-0.654,0.199-0.78,0.587c-0.377,1.158-0.854,2.272-1.527,3.294
		c-1.339,2.034-3.746,2.796-5.875,1.859c-2.212-0.972-3.425-4.021-2.159-6.072c1.253-2.031,1.125-4.14,1.006-6.315
		c-0.036-0.656-0.417-1.165-0.711-1.707c-1.58-2.917-0.574-5.746,2.496-6.997c0.085-0.034,0.163-0.087,0.244-0.132
		C-461.034,222.143-460.41,222.143-459.787,222.143z M-457.44,234.258c0.105-3.296-0.291-5.781-1.717-8.024
		c-0.312-0.49-0.654-0.924-1.298-0.932c-1.3-0.017-1.978,1.209-1.226,2.359c0.875,1.338,1.224,2.769,1.148,4.341
		c-0.031,0.652-0.031,1.31,0,1.962c0.071,1.54-0.258,2.951-1.129,4.252c-0.58,0.865-0.412,1.711,0.301,2.113
		c0.855,0.482,1.65,0.239,2.206-0.654C-457.991,237.803-457.447,235.756-457.44,234.258z M-419.279,234.441c0,0.022,0,0.045,0,0.066
		c1.649,0,3.298,0.024,4.947-0.008c1.14-0.022,1.901-0.912,1.647-1.873c-0.236-0.893-0.881-1.207-1.758-1.204
		c-2.769,0.01-5.543-0.103-8.305,0.032c-2.704,0.133-2.106-0.462-2.202,2.238c-0.02,0.554,0.143,0.771,0.729,0.76
		C-422.574,234.42-420.926,234.441-419.279,234.441z M-451.09,234.44c0,0.022,0,0.044,0,0.066c0.932,0,1.864,0.025,2.794-0.007
		c1.022-0.035,1.639-0.63,1.65-1.521c0.012-0.935-0.607-1.533-1.702-1.542c-1.271-0.01-2.542,0.061-3.813,0.074
		c-2.243,0.023-2.228,0.017-2.167,2.292c0.013,0.484,0.146,0.662,0.634,0.646C-452.828,234.421-451.959,234.44-451.09,234.44z"/>
	<path id="XMLID_474_" style="fill:#B9B7B9;" d="M-420.432,308.639c0.006,0.825-0.736,1.561-1.551,1.536
		c-0.777-0.022-1.48-0.74-1.486-1.517c-0.005-0.808,0.761-1.565,1.559-1.542C-421.13,307.139-420.437,307.853-420.432,308.639z"/>
</g>
<g id="XMLID_464_">
	<g id="XMLID_469_">
		<path id="XMLID_470_" style="fill:#B9B7B9;" d="M-339.273,50.582c-13.64,0-24.736-11.097-24.736-24.738
			c0-13.64,11.096-24.736,24.736-24.736c13.639,0,24.736,11.097,24.736,24.736C-314.537,39.485-325.634,50.582-339.273,50.582z
			 M-339.273,5.42c-11.263,0-20.424,9.161-20.424,20.424c0,11.262,9.161,20.426,20.424,20.426c11.262,0,20.424-9.164,20.424-20.426
			C-318.849,14.581-328.011,5.42-339.273,5.42z"/>
	</g>
	<g id="XMLID_465_">
		<path id="XMLID_466_" style="fill:#B9B7B9;" d="M-302.562,97.048h-73.423c-1.553,0-3.046-0.658-4.096-1.812
			c-1.053-1.156-1.574-2.712-1.432-4.268c2.014-21.948,20.174-38.496,42.24-38.496s40.226,16.548,42.24,38.496
			c0.143,1.562-0.381,3.117-1.437,4.272C-299.518,96.39-301.011,97.048-302.562,97.048z M-339.273,56.784
			c-19.824,0-36.135,14.866-37.944,34.579c-0.045,0.484,0.184,0.813,0.324,0.969c0.137,0.15,0.437,0.403,0.908,0.403h73.423
			c0.469,0,0.769-0.253,0.906-0.403c0.142-0.155,0.371-0.484,0.326-0.971C-303.138,71.65-319.45,56.784-339.273,56.784z"/>
	</g>
</g>
<g id="XMLID_457_">
	<path id="XMLID_461_" style="fill:#B9B7B9;" d="M-406.519,391.378c0,11.949,0.027,23.898-0.012,35.847
		c-0.021,6.105-3.447,10.616-9.102,12.031c-1.226,0.307-2.54,0.363-3.814,0.364c-23.255,0.021-46.511,0.025-69.767,0.01
		c-8.177-0.005-12.991-4.875-12.994-13.107c-0.008-23.448-0.008-46.896,0-70.345c0.003-8.216,4.831-13.076,13.021-13.081
		c23.191-0.014,46.383-0.013,69.575-0.001c8.3,0.005,13.086,4.847,13.091,13.206C-406.513,367.993-406.519,379.686-406.519,391.378z
		 M-417.772,391.558c0-11.69-0.032-23.382,0.036-35.073c0.01-1.699-0.485-2.174-2.18-2.17c-22.933,0.052-45.865,0.054-68.797-0.003
		c-1.774-0.004-2.286,0.48-2.281,2.267c0.056,23.189,0.056,46.379,0,69.568c-0.004,1.782,0.5,2.274,2.278,2.27
		c22.868-0.057,45.736-0.059,68.604,0.002c1.852,0.005,2.394-0.499,2.381-2.365C-417.812,414.555-417.772,403.057-417.772,391.558z"
		/>
	<path id="XMLID_460_" style="fill:#B9B7B9;" d="M-433.998,387.161c3.088,0,5.939,0,8.901,0c0,11.169,0,22.242,0,33.438
		c-19.485,0-38.911,0-58.492,0c0-11.058,0-22.131,0-33.373c2.823,0,5.725,0,8.856,0c0,2.874-0.038,5.741,0.007,8.607
		c0.146,9.38,6.198,17.444,14.831,19.812c13.026,3.573,25.489-5.836,25.884-19.577
		C-433.925,393.135-433.998,390.196-433.998,387.161z"/>
	<path id="XMLID_459_" style="fill:#B9B7B9;" d="M-454.649,408.831c-7.099-0.214-12.636-6.013-12.433-13.021
		c0.202-6.938,6.119-12.624,12.905-12.401c7.198,0.235,12.783,6.105,12.524,13.163
		C-441.909,403.536-447.743,409.039-454.649,408.831z"/>
	<path id="XMLID_458_" style="fill:#B9B7B9;" d="M-425.126,374.597c-4.253,0-8.387,0-12.628,0c0-3.928,0-7.743,0-11.668
		c4.209,0,8.348,0,12.628,0C-425.126,366.758-425.126,370.57-425.126,374.597z"/>
</g>
<path id="XMLID_456_" style="fill:#B9B7B9;" d="M-465.017,505.381c-4.323,0-8.301,0-12.406,0c0-5.72,0-11.318,0-17.128
	c4.087,0,8.109,0,12.345,0c0-3.736,0.028-7.267-0.007-10.796c-0.037-3.688,0.173-7.311,1.461-10.844
	c2.455-6.732,7.349-10.717,14.228-11.627c5.794-0.767,11.722-0.529,17.723-0.741c0,5.799,0,11.219,0,16.92
	c-3.106,0-6.25-0.067-9.388,0.03c-1.432,0.045-2.883,0.302-4.271,0.67c-1.698,0.449-2.766,1.731-2.812,3.449
	c-0.113,4.227-0.037,8.457-0.037,12.911c5.65,0,11.193,0,16.877,0c-0.881,5.81-1.725,11.375-2.601,17.155c-4.736,0-9.45,0-14.312,0
	c0,15.538,0,30.854,0,46.304c-5.629,0-11.109,0-16.802,0C-465.017,536.356-465.017,520.996-465.017,505.381z"/>
<path id="XMLID_455_" style="fill:#B9B7B9;" d="M-377.954,400.795c2.916-0.171,5.521,0.535,8.029-0.839
	c-10.542-5.065-15.678-12.273-14.759-20.191c2.574,0.666,5.188,1.342,7.802,2.018c0.117-0.187,0.235-0.372,0.352-0.559
	c-4.054-3.433-6.585-7.701-7.722-12.853c-1.161-5.258-0.423-10.177,2.016-15.125c10.846,13.569,24.836,20.767,41.547,22.079
	c0.344-3.784,0.251-7.395,1.061-10.79c2.246-9.427,10.711-15.803,19.927-15.363c4.698,0.224,8.807,2.019,12.123,5.317
	c1.261,1.255,2.469,1.354,3.88,0.83c3.159-1.175,6.283-2.44,9.663-3.764c-1.327,4.235-4.069,7.506-7.142,10.57
	c0.069,0.165,0.139,0.33,0.208,0.495c3.105-0.926,6.211-1.851,9.451-2.815c-2.032,3.642-4.676,6.675-7.828,9.249
	c-1.024,0.836-1.473,1.677-1.439,3.002c0.242,9.603-1.383,18.88-5.388,27.633c-7.746,16.93-20.393,28.302-38.698,32.498
	c-14.528,3.33-28.267,0.562-41.009-7.143c-0.31-0.188-0.593-0.419-1.146-0.813c10.375,0.927,19.287-1.645,27.042-8.911
	C-368.985,414.016-374.981,409.519-377.954,400.795z"/>
<g id="XMLID_449_">
	<path id="XMLID_452_" style="fill:#B9B7B9;" d="M-387.71,248.664c0.14-1.099,0.215-2.21,0.431-3.294
		c0.538-2.702,1.75-5.082,3.671-7.064c2.542-2.622,4.974-5.37,7.756-7.734c4.229-3.593,8.724-3.59,12.775,0.163
		c4.312,3.993,8.503,8.134,12.414,12.529c2.904,3.264,2.869,8.051,0.063,11.411c-2.087,2.5-4.462,4.726-6.821,6.961
		c-0.458,0.434-0.532,0.729-0.241,1.319c2.303,4.662,5.559,8.621,9.076,12.385c3.564,3.813,7.501,7.197,11.872,10.064
		c1.193,0.782,2.5,1.355,3.725,2.076c0.518,0.306,0.721-0.055,0.999-0.321c2.322-2.229,4.46-4.649,6.925-6.728
		c3.439-2.899,8.225-2.929,11.529,0.12c4.458,4.114,8.757,8.404,12.834,12.897c3.045,3.356,3.059,8.245,0.135,11.731
		c-2.568,3.062-5.512,5.775-8.337,8.592c-2.158,2.15-4.93,3.255-7.964,3.646c-0.209,0.027-0.41,0.114-0.615,0.174
		c-1.177,0-2.353,0-3.53,0c-0.205-0.056-0.406-0.146-0.614-0.162c-2.041-0.161-4.039-0.561-6.011-1.094
		c-6.96-1.881-13.331-5.092-19.377-8.918c-15.161-9.597-26.83-22.426-34.976-38.419c-2.291-4.499-4.049-9.214-5.089-14.175
		c-0.337-1.605-0.36-3.248-0.63-4.859C-387.71,249.531-387.71,249.098-387.71,248.664z M-319.751,312.189
		c3.467,0.021,6.057-0.967,8.086-3.214c1.87-2.07,3.899-3.979,5.848-5.97c0.367-0.375,0.731-0.76,1.05-1.176
		c1.275-1.663,1.24-3.387-0.093-4.994c-0.315-0.38-0.659-0.738-1.008-1.089c-2.098-2.105-4.2-4.205-6.303-6.306
		c-1.511-1.51-3.001-3.041-4.542-4.519c-1.65-1.583-3.487-1.607-5.227-0.13c-0.33,0.279-0.635,0.59-0.942,0.896
		c-2.126,2.12-4.236,4.256-6.378,6.36c-1.533,1.506-3.237,1.778-5.094,0.839c-1.296-0.656-2.597-1.312-3.843-2.055
		c-5.601-3.34-10.474-7.566-14.874-12.352c-3.888-4.229-7.435-8.701-9.829-13.985c-1.263-2.788-1.019-4.184,1.21-6.282
		c2.276-2.144,4.535-4.308,6.64-6.619c1.557-1.709,1.537-3.397,0.065-5.159c-0.238-0.285-0.493-0.557-0.755-0.818
		c-3.498-3.508-6.993-7.016-10.498-10.516c-2.258-2.255-4.251-2.275-6.508-0.049c-2.159,2.131-4.299,4.281-6.436,6.435
		c-1.032,1.041-1.905,2.198-2.377,3.61c-0.976,2.916-0.75,5.871-0.151,8.802c0.922,4.51,2.634,8.752,4.664,12.864
		c3.586,7.264,8.251,13.795,13.652,19.805c9.551,10.627,20.876,18.709,34.324,23.69
		C-325.92,311.425-322.648,312.069-319.751,312.189z"/>
	<path id="XMLID_451_" style="fill:#B9B7B9;" d="M-334.389,222.468c2.126,0.628,4.319,0.989,6.438,1.66
		c6.877,2.175,13.031,5.627,18.439,10.387c5.747,5.058,10.199,11.079,13.272,18.104c1.604,3.666,2.722,7.48,3.464,11.409
		c0.039,0.21,0.124,0.41,0.188,0.614c0,0.187,0,0.372,0,0.558c-0.023,0.021-0.057,0.038-0.066,0.063
		c-0.576,1.594-1.509,2.372-2.753,2.292c-1.513-0.097-2.403-0.965-2.74-2.774c-1.242-6.666-3.782-12.787-7.749-18.287
		c-5.19-7.197-11.876-12.533-20.099-15.914c-2.897-1.19-5.896-2.026-8.969-2.621c-1.748-0.338-2.614-1.151-2.765-2.434
		c-0.158-1.337,0.447-2.242,2.039-3.057C-335.256,222.468-334.823,222.468-334.389,222.468z"/>
	<path id="XMLID_450_" style="fill:#B9B7B9;" d="M-338.508,242.45c-0.001-1.732,1.485-2.998,3.254-2.668
		c8.354,1.558,15.03,5.798,20.02,12.669c2.713,3.736,4.414,7.916,5.268,12.449c0.305,1.619-0.477,3.009-1.958,3.395
		c-1.44,0.375-2.915-0.496-3.297-2.096c-0.497-2.076-0.965-4.156-1.879-6.098c-3.832-8.14-10.136-13.152-18.965-14.963
		C-337.642,244.814-338.508,243.849-338.508,242.45z"/>
</g>
<g id="XMLID_442_">
	<path id="XMLID_446_" style="fill:#B9B7B9;" d="M-406.065,173.351c-0.425,1.739-0.899,3.442-2.035,4.903
		c-2.16,2.781-4.977,4.118-8.482,4.094c-3.143-0.022-6.287,0.021-9.429-0.022c-0.787-0.011-0.993,0.221-0.99,1
		c0.029,7.513,0.018,15.024,0.018,22.536c0,0.334,0,0.668,0,1.01c-0.423,0.028-0.581-0.244-0.784-0.411
		c-9.501-7.791-19.002-15.582-28.488-23.393c-0.616-0.508-1.223-0.743-2.033-0.741c-11.284,0.024-22.568,0.024-33.852,0.013
		c-4.845-0.005-8.625-2.694-10.017-7.086c-0.198-0.625-0.335-1.268-0.501-1.902c0-17.985,0-35.971,0-53.957
		c0.058-0.139,0.146-0.273,0.17-0.418c0.422-2.487,1.647-4.487,3.546-6.14c1.447-1.26,3.171-1.836,4.962-2.31
		c26.413,0,52.825,0,79.237,0c0.14,0.059,0.275,0.14,0.421,0.17c3.949,0.829,6.477,3.244,7.792,6.998
		c0.194,0.554,0.312,1.133,0.466,1.699C-406.065,137.38-406.065,155.365-406.065,173.351z M-433.022,194.348
		c0-0.575,0-0.915,0-1.255c0-5.251,0.02-10.501-0.02-15.751c-0.006-0.828,0.202-1.056,1.039-1.049
		c5.156,0.039,10.312,0.031,15.469,0.015c2.747-0.01,4.419-1.671,4.421-4.415c0.01-16.978,0.01-33.956,0-50.934
		c-0.002-2.75-1.682-4.393-4.427-4.394c-25.216-0.003-50.431-0.002-75.646,0.003c-0.437,0-0.887,0.015-1.31,0.112
		c-1.994,0.466-3.117,2.121-3.117,4.565c-0.002,16.727-0.001,33.453-0.001,50.18c0,3.365,1.527,4.887,4.902,4.887
		c11.916,0,23.832,0.002,35.748-0.006c0.58,0,1.074,0.072,1.559,0.475c3.919,3.252,7.861,6.476,11.798,9.705
		C-439.479,189.056-436.346,191.622-433.022,194.348z"/>
	<path id="XMLID_445_" style="fill:#B9B7B9;" d="M-454.314,142.974c10.751,0,21.502,0.01,32.253-0.02
		c0.856-0.003,1.133,0.206,1.086,1.08c-0.076,1.41-0.046,2.829-0.009,4.242c0.016,0.584-0.177,0.813-0.75,0.733
		c-0.124-0.017-0.251-0.002-0.377-0.002c-21.502,0-43.004-0.006-64.506,0.021c-0.909,0.001-1.194-0.213-1.135-1.133
		c0.085-1.315,0.071-2.643,0.003-3.959c-0.041-0.796,0.218-0.984,0.992-0.981c8.424,0.028,16.849,0.018,25.274,0.018
		C-459.092,142.974-456.703,142.974-454.314,142.974z"/>
	<path id="XMLID_444_" style="fill:#B9B7B9;" d="M-454.267,128.178c10.689,0,21.378-0.001,32.068,0c1.203,0,1.203,0.002,1.203,1.231
		c0,1.384-0.016,2.768,0.009,4.15c0.009,0.489-0.161,0.697-0.649,0.657c-0.218-0.018-0.44-0.001-0.66-0.001
		c-21.379,0-42.757,0.001-64.136-0.002c-1.529,0-1.283,0.103-1.295-1.316c-0.012-1.353,0.013-2.704-0.01-4.056
		c-0.008-0.483,0.156-0.702,0.647-0.666c0.25,0.019,0.503,0.002,0.754,0.002C-475.645,128.178-464.956,128.178-454.267,128.178z"/>
	<path id="XMLID_443_" style="fill:#B9B7B9;" d="M-454.266,157.748c10.721,0,21.442,0.013,32.163-0.021
		c0.928-0.003,1.177,0.258,1.128,1.156c-0.078,1.411-0.037,2.829-0.013,4.243c0.009,0.488-0.157,0.699-0.648,0.655
		c-0.218-0.02-0.44-0.002-0.66-0.002c-21.379,0-42.758,0.001-64.137-0.003c-1.499,0-1.282,0.144-1.294-1.314
		c-0.011-1.353,0.013-2.704-0.01-4.056c-0.008-0.484,0.154-0.702,0.648-0.66c0.25,0.021,0.502,0.002,0.754,0.002
		C-475.645,157.748-464.955,157.748-454.266,157.748z"/>
</g>
<path id="XMLID_2269_" style="fill:#4E4F4F;" d="M30.957,48.616c0.576,0.42,0.952,0.626,1.244,0.917
	c13.596,13.581,27.183,27.172,40.779,40.754c0.865,0.863,1.573,1.771,1.513,3.075c-0.061,1.333-0.676,2.334-1.866,2.921
	c-1.226,0.604-2.432,0.484-3.539-0.327c-0.334-0.245-0.624-0.555-0.919-0.85C53.627,80.6,39.087,66.091,24.548,51.581
	c-2.163-2.158-2.172-3.862-0.029-6.001C39.083,31.046,53.648,16.515,68.208,1.977c0.754-0.752,1.532-1.419,2.666-1.472
	c1.42-0.065,2.521,0.495,3.199,1.74c0.674,1.238,0.584,2.484-0.241,3.636c-0.281,0.393-0.637,0.736-0.981,1.08
	c-13.514,13.516-27.029,27.03-40.549,40.54C31.983,47.819,31.607,48.08,30.957,48.616z"/>
<g id="XMLID_2496_">
	<g id="XMLID_377_">
		<g id="XMLID_380_">
			<path id="XMLID_381_" style="fill:#4E4F4F;" d="M165.851,48.754c0.578,0.422,0.956,0.629,1.249,0.921
				c13.656,13.642,27.303,27.292,40.958,40.934c0.869,0.868,1.58,1.779,1.52,3.089c-0.062,1.339-0.679,2.345-1.875,2.935
				c-1.231,0.606-2.442,0.486-3.554-0.329c-0.335-0.247-0.626-0.558-0.923-0.854c-14.605-14.571-29.209-29.144-43.812-43.717
				c-2.172-2.168-2.181-3.88-0.029-6.027c14.627-14.599,29.257-29.194,43.881-43.796c0.757-0.756,1.539-1.425,2.677-1.478
				c1.426-0.066,2.533,0.497,3.213,1.748c0.677,1.244,0.586,2.495-0.242,3.652c-0.282,0.395-0.64,0.739-0.985,1.084
				c-13.573,13.576-27.148,27.149-40.728,40.718C166.882,47.953,166.504,48.216,165.851,48.754z"/>
		</g>
		<g id="XMLID_378_">
			<path id="XMLID_379_" style="fill:#4E4F4F;" d="M156.922,48.686c-0.578-0.421-0.956-0.628-1.249-0.921
				c-13.656-13.641-27.303-27.292-40.958-40.933c-0.869-0.868-1.58-1.779-1.52-3.089c0.062-1.339,0.679-2.345,1.875-2.934
				c1.231-0.607,2.443-0.486,3.554,0.329c0.336,0.247,0.626,0.557,0.923,0.853c14.605,14.571,29.209,29.145,43.812,43.718
				c2.173,2.168,2.181,3.88,0.03,6.027c-14.627,14.598-29.257,29.193-43.882,43.795c-0.757,0.757-1.539,1.426-2.677,1.479
				c-1.426,0.065-2.533-0.497-3.213-1.747c-0.677-1.244-0.587-2.495,0.242-3.652c0.283-0.396,0.64-0.739,0.985-1.085
				c13.573-13.575,27.148-27.149,40.728-40.718C155.892,49.486,156.269,49.225,156.922,48.686z"/>
		</g>
	</g>
</g>
<g id="XMLID_2792_">
	<path id="XMLID_2794_" style="fill:#B9B7B9;" d="M113.034,180.163c0-2.521,0.02-5.043-0.008-7.563
		c-0.014-1.255,0.434-2.266,1.313-3.145c18.177-18.165,36.347-36.338,54.523-54.504c1.699-1.698,3.695-1.695,5.378,0
		c5.087,5.123,10.166,10.254,15.234,15.394c1.738,1.763,1.73,3.711-0.016,5.458c-18.167,18.175-36.342,36.343-54.507,54.521
		c-0.857,0.858-1.829,1.266-3.049,1.269c-4.974,0.009-9.947,0.069-14.921,0.098c-2.752,0.016-4.057-1.302-4.059-4.065
		c-0.001-2.487,0-4.974,0-7.461C112.96,180.163,112.997,180.163,113.034,180.163z M160.33,133.055
		c-0.253,0.297-0.481,0.604-0.749,0.872c-12.208,12.214-24.363,24.483-36.683,36.583c-2.24,2.2-3.492,4.342-3.143,7.513
		c0.239,2.176,0.046,4.398,0.046,6.673c0.389,0.017,0.724,0.046,1.059,0.045c3.039-0.012,6.079-0.051,9.118-0.026
		c0.722,0.006,1.208-0.233,1.708-0.733c13.042-13.041,26.099-26.067,39.153-39.097c0.236-0.236,0.458-0.487,0.638-0.679
		C167.773,140.5,164.116,136.842,160.33,133.055z M165.552,128.207c3.602,3.604,7.258,7.263,10.827,10.833
		c2.03-2.013,4.099-4.063,6.042-5.991c-3.621-3.626-7.271-7.28-10.837-10.852C169.606,124.168,167.558,126.209,165.552,128.207z"/>
	<path id="XMLID_2793_" style="fill:#B9B7B9;" d="M161.504,202.06c14.609,0,29.218,0,43.828,0.002c0.483,0,0.969-0.007,1.449,0.04
		c1.718,0.168,3.092,1.677,3.07,3.348c-0.023,1.762-1.424,3.21-3.21,3.308c-0.379,0.021-0.759,0.014-1.139,0.014
		c-29.391,0.001-58.782,0.001-88.173-0.001c-0.517,0-1.045,0.029-1.55-0.058c-1.627-0.28-2.805-1.84-2.715-3.529
		c0.087-1.642,1.383-2.959,3.061-3.091c0.447-0.035,0.897-0.03,1.346-0.031C132.148,202.06,146.826,202.06,161.504,202.06z"/>
</g>
<g id="XMLID_365_">
	<path id="XMLID_370_" style="fill:#B9B7B9;" d="M84.02,146.562c-0.604-5.34-2.216-10.326-4.795-14.818
		c-2.816-4.904-6.619-9.013-11.303-12.212c-3.957-2.699-8.331-4.487-13-5.314c-3.402-0.607-6.849-0.701-10.246-0.282
		c-7.436,0.918-14.07,4.028-19.716,9.242c-3.288,3.035-6.009,6.758-8.088,11.061c-1.402,2.902-2.429,6.053-3.052,9.363
		c-0.669,3.564-0.805,7.245-0.402,10.941c0.478,4.398,1.56,8.757,3.309,13.327c2.108,5.511,5.029,11.042,9.193,17.41
		c3.906,5.976,8.339,11.589,12.548,16.765c0.311,0.384,0.631,0.762,0.951,1.136c0.416,0.491,0.834,0.978,1.222,1.486
		c1.401,1.837,3.709,4.33,7.557,4.8l0.876,0.01c4.118-0.407,6.418-3.201,8.099-5.239c4.611-5.597,9.482-11.673,13.871-18.202
		c2.85-4.241,5.195-8.268,7.171-12.306c2.703-5.527,4.478-10.813,5.425-16.157C84.296,153.847,84.425,150.143,84.02,146.562z
		 M76.568,156.319c-0.829,4.676-2.4,9.338-4.806,14.255c-1.83,3.744-4.015,7.49-6.68,11.455
		c-4.217,6.275-8.958,12.188-13.452,17.642c-1.298,1.577-2.034,2.372-2.927,2.601c-0.659-0.173-1.355-0.646-2.358-1.96
		c-0.466-0.612-0.962-1.199-1.461-1.783c-0.284-0.334-0.569-0.669-0.846-1.01c-4.087-5.026-8.382-10.465-12.111-16.169
		c-3.877-5.927-6.577-11.025-8.497-16.045c-1.525-3.986-2.466-7.761-2.876-11.537c-0.326-2.996-0.219-5.971,0.32-8.838
		c0.506-2.69,1.333-5.235,2.46-7.567c1.711-3.54,3.835-6.454,6.494-8.91c4.584-4.234,9.729-6.651,15.725-7.392
		c1.091-0.136,2.191-0.203,3.292-0.203c1.608,0,3.219,0.143,4.821,0.428c3.665,0.649,7.099,2.054,10.208,4.176
		c3.836,2.619,6.822,5.844,9.125,9.859c2.116,3.685,3.388,7.627,3.888,12.049C77.213,150.265,77.107,153.276,76.568,156.319z"/>
	<circle id="XMLID_375_" style="fill:#B9B7B9;" cx="48.72" cy="150.547" r="12.052"/>
</g>
<g id="XMLID_532_">
	<path id="XMLID_534_" style="fill:#F37F5E;" d="M84.02,254.455c-0.604-5.34-2.216-10.327-4.795-14.818
		c-2.816-4.905-6.619-9.014-11.303-12.213c-3.957-2.698-8.331-4.486-13-5.313c-3.402-0.607-6.849-0.701-10.246-0.283
		c-7.436,0.919-14.07,4.029-19.716,9.243c-3.288,3.035-6.009,6.758-8.088,11.061c-1.402,2.902-2.429,6.052-3.052,9.363
		c-0.669,3.563-0.805,7.244-0.402,10.941c0.478,4.398,1.56,8.756,3.309,13.327c2.108,5.511,5.029,11.042,9.193,17.41
		c3.906,5.976,8.339,11.588,12.548,16.765c0.311,0.383,0.631,0.762,0.951,1.136c0.416,0.491,0.834,0.977,1.222,1.486
		c1.401,1.837,3.709,4.33,7.557,4.8l0.876,0.01c4.118-0.407,6.418-3.202,8.099-5.239c4.611-5.598,9.482-11.673,13.871-18.202
		c2.85-4.242,5.195-8.269,7.171-12.307c2.703-5.526,4.478-10.812,5.425-16.157C84.296,261.739,84.425,258.035,84.02,254.455z
		 M76.568,264.212c-0.829,4.676-2.4,9.338-4.806,14.255c-1.83,3.743-4.015,7.489-6.68,11.455
		c-4.217,6.274-8.958,12.188-13.452,17.642c-1.298,1.577-2.034,2.372-2.927,2.601c-0.659-0.173-1.355-0.647-2.358-1.961
		c-0.466-0.612-0.962-1.198-1.461-1.782c-0.284-0.335-0.569-0.669-0.846-1.01c-4.087-5.026-8.382-10.465-12.111-16.169
		c-3.877-5.927-6.577-11.025-8.497-16.045c-1.525-3.987-2.466-7.761-2.876-11.537c-0.326-2.996-0.219-5.971,0.32-8.839
		c0.506-2.689,1.333-5.234,2.46-7.566c1.711-3.54,3.835-6.454,6.494-8.911c4.584-4.234,9.729-6.65,15.725-7.392
		c1.091-0.135,2.191-0.203,3.292-0.203c1.608,0,3.219,0.143,4.821,0.428c3.665,0.649,7.099,2.055,10.208,4.177
		c3.836,2.619,6.822,5.844,9.125,9.858c2.116,3.686,3.388,7.628,3.888,12.05C77.213,258.156,77.107,261.169,76.568,264.212z"/>
	<circle id="XMLID_533_" style="fill:#F37F5E;" cx="48.72" cy="258.439" r="12.053"/>
</g>
<g id="XMLID_564_">
	<path id="XMLID_576_" style="fill:#B9B7B9;stroke:#B9B7B9;stroke-width:1.0995;stroke-miterlimit:10;" d="M-295.087,480.775
		c0-0.219,0.001-0.438-0.005-0.655c-0.102-3.958-3.123-6.944-6.595-7.121c-2.054-0.104-4.115-0.104-6.172-0.104
		c-25.029-0.006-50.059-0.002-75.087-0.006c-2.056,0-3.94,0.442-5.543,1.837c-1.387,1.206-2.049,2.781-2.486,4.497
		c0,20.227,0,40.453,0,60.68c0.053,0.142,0.124,0.28,0.158,0.426c0.78,3.369,3.25,5.614,6.697,5.759
		c3.521,0.147,7.05,0.076,10.577,0.077c23.438,0.004,46.875,0.014,70.313-0.029c1.337-0.002,2.79-0.193,3.987-0.739
		c2.939-1.341,4.163-3.858,4.162-7.04C-295.09,519.162-295.086,499.969-295.087,480.775z M-303.058,543.273
		c-26.652,0.001-53.305,0.001-79.958,0c-3.372,0-5.055-1.68-5.055-5.065c-0.003-19.131-0.002-38.263,0-57.394
		c0.001-2.617,1.104-4.277,3.26-4.832c0.592-0.152,1.234-0.155,1.854-0.155c13.295-0.009,26.59-0.007,39.885-0.007
		c13.42,0,26.839-0.002,40.259,0.002c2.402,0.001,4.085,1.133,4.624,3.151c0.158,0.593,0.191,1.233,0.191,1.852
		c0.009,19.132,0.009,38.263,0.006,57.394C-297.993,541.598-299.68,543.273-303.058,543.273z"/>
	<path id="XMLID_577_" style="fill:#B9B7B9;stroke:#B9B7B9;stroke-width:1.0995;stroke-miterlimit:10;" d="M-379.872,466.423
		c0.358,0.083,0.744,0.062,1.117,0.062c11.892,0.003,23.784,0.003,35.675,0.003c11.892,0,23.784,0,35.675-0.001
		c0.343,0,0.69,0.021,1.029-0.024c0.789-0.104,1.375-0.728,1.32-1.448c-0.059-0.769-0.47-1.279-1.275-1.377
		c-0.339-0.042-0.684-0.052-1.026-0.052c-23.784-0.002-47.567-0.002-71.351,0.001c-0.373,0-0.75,0.012-1.118,0.069
		c-0.762,0.118-1.16,0.639-1.179,1.357C-381.022,465.744-380.596,466.256-379.872,466.423z"/>
	<path id="XMLID_580_" style="fill:#B9B7B9;stroke:#B9B7B9;stroke-width:1.0995;stroke-miterlimit:10;" d="M-342.974,521.2
		c-2.458-1.536-4.948-3.021-7.421-4.532c-0.253-0.154-0.489-0.337-0.854-0.591c0.297-0.24,0.527-0.399,0.726-0.591
		c1.865-1.794,3.081-3.979,3.307-6.54c0.271-3.072,0.472-6.175,0.36-9.251c-0.147-4.028-2.259-6.969-5.817-8.854
		c-2.395-1.269-4.996-1.248-7.585-1.089c-5.123,0.313-9.35,4.32-9.747,9.432c-0.19,2.441,0.129,4.919,0.118,7.38
		c-0.016,3.759,1.167,6.974,4.163,9.55c-0.253,0.178-0.395,0.29-0.548,0.384c-2.498,1.532-4.994,3.066-7.496,4.59
		c-2.021,1.23-3.109,3.01-3.174,5.38c-0.034,1.247-0.025,2.496-0.006,3.744c0.018,1.132,0.533,1.657,1.675,1.658
		c11.2,0.008,22.4,0.008,33.601,0c1.16-0.001,1.676-0.49,1.699-1.632c0.027-1.371,0.04-2.747-0.034-4.115
		C-340.125,523.977-341.168,522.329-342.974,521.2z M-342.84,528.009c-0.032,0.276-0.004,0.559-0.004,0.939
		c-10.449,0-20.788,0-31.302,0c0.084-1.168-0.018-2.329,0.303-3.358c0.235-0.754,0.907-1.519,1.59-1.96
		c3.113-2.014,6.3-3.915,9.458-5.857c1.744-1.073,1.735-2.13-0.01-3.183c-2.708-1.633-4.018-4.083-4.151-7.199
		c-0.09-2.119-0.18-4.238-0.229-6.358c-0.113-4.903,2.794-8.094,7.683-8.395c2.495-0.153,4.933,0.02,6.98,1.74
		c1.685,1.416,2.755,3.184,2.749,5.4c-0.008,2.897-0.08,5.803-0.321,8.688c-0.228,2.725-1.731,4.748-4.068,6.15
		c-0.08,0.048-0.159,0.098-0.239,0.146c-1.357,0.84-1.378,1.994-0.021,2.833c2.917,1.802,5.787,3.69,8.789,5.337
		C-343.525,524.09-342.565,525.648-342.84,528.009z"/>
	<path id="XMLID_581_" style="fill:#B9B7B9;stroke:#B9B7B9;stroke-width:1.0995;stroke-miterlimit:10;" d="M-327.599,499.377
		c0.031,0,0.062,0,0.094,0c5.487,0,10.974,0.002,16.461-0.004c0.34,0,0.688-0.02,1.02-0.088c0.699-0.146,1.069-0.61,1.098-1.316
		c0.029-0.713-0.326-1.199-1.001-1.398c-0.321-0.095-0.676-0.104-1.015-0.104c-2.775-0.007-5.549-0.004-8.324-0.004
		c-2.774,0-5.549-0.002-8.324,0.001c-1.379,0.001-2.1,0.502-2.103,1.451C-329.697,498.861-328.976,499.365-327.599,499.377z"/>
	<path id="XMLID_582_" style="fill:#B9B7B9;stroke:#B9B7B9;stroke-width:1.0995;stroke-miterlimit:10;" d="M-327.998,512.231
		c0.187,0.007,0.374,0.002,0.562,0.002c5.424,0,10.849,0.001,16.274-0.002c0.373,0,0.756,0.016,1.117-0.059
		c0.688-0.141,1.082-0.596,1.118-1.304c0.038-0.758-0.354-1.247-1.063-1.449c-0.292-0.083-0.618-0.06-0.929-0.06
		c-2.774-0.004-5.549-0.003-8.324-0.002c-2.899,0-5.798-0.007-8.698,0.004c-1.08,0.004-1.735,0.547-1.755,1.404
		C-329.717,511.622-329.059,512.19-327.998,512.231z"/>
	<path id="XMLID_583_" style="fill:#B9B7B9;stroke:#B9B7B9;stroke-width:1.0995;stroke-miterlimit:10;" d="M-310.406,522.258
		c-0.217-0.016-0.436-0.009-0.654-0.009c-5.487-0.001-10.973-0.001-16.46,0.002c-0.342,0-0.692-0.011-1.025,0.053
		c-0.93,0.18-1.498,1.259-0.938,1.998c0.318,0.419,1.004,0.769,1.534,0.782c2.866,0.075,5.735,0.036,8.603,0.035
		c2.961-0.001,5.923,0.012,8.884-0.009c0.941-0.006,1.529-0.581,1.543-1.399C-308.903,522.878-309.468,522.323-310.406,522.258z"/>
</g>
</svg>
